<svg width="295" height="27" viewBox="0 0 295 27" fill="none" xmlns="http://www.w3.org/2000/svg">
<path d="M18 27H15.75V24.75V22.5V20.25V18V15.75V13.5H13.5H11.25H9H6.75H4.5V15.75V18V20.25V22.5V24.75V27H2.25H0V24.75V22.5V20.25V18V15.75V13.5V11.25V9V6.75V4.5H2.25H4.5V6.75V9H6.75H9H11.25H13.5H15.75V6.75V4.5H18H20.25V6.75V9V11.25V13.5V15.75V18V20.25V22.5V24.75V27H18ZM15.75 4.5H13.5H11.25H9H6.75H4.5V2.25V0H6.75H9H11.25H13.5H15.75V2.25V4.5ZM38.25 27H36H33.75H31.5H29.25H27H24.75H22.5V24.75V22.5V20.25V18V15.75V13.5V11.25V9V6.75V4.5V2.25V0H24.75H27H29.25H31.5H33.75H36H38.25H40.5V2.25V4.5H42.75H45V6.75V9V11.25H42.75H40.5V9V6.75V4.5H38.25H36H33.75H31.5H29.25H27V6.75V9V11.25H29.25H31.5H33.75H36H38.25H40.5V13.5V15.75H42.75H45V18V20.25V22.5H42.75H40.5V20.25V18V15.75H38.25H36H33.75H31.5H29.25H27V18V20.25V22.5H29.25H31.5H33.75H36H38.25H40.5V24.75V27H38.25ZM67.5 27H65.25H63H60.75H58.5H56.25H54H51.75V24.75V22.5H54H56.25H58.5H60.75H63H65.25H67.5H69.75V24.75V27H67.5ZM69.75 22.5V20.25V18V15.75V13.5V11.25V9V6.75V4.5H72H74.25V6.75V9V11.25V13.5V15.75V18V20.25V22.5H72H69.75ZM51.75 22.5H49.5H47.25V20.25V18V15.75V13.5V11.25V9V6.75V4.5H49.5H51.75V6.75V9V11.25V13.5V15.75V18V20.25V22.5ZM69.75 4.5H67.5H65.25H63H60.75H58.5H56.25H54H51.75V2.25V0H54H56.25H58.5H60.75H63H65.25H67.5H69.75V2.25V4.5ZM92.25 27H90H87.75H85.5H83.25V24.75V22.5H85.5H87.75H90H92.25H94.5V24.75V27H92.25ZM94.5 22.5V20.25V18V15.75V13.5V11.25V9V6.75V4.5V2.25V0H96.75H99V2.25V4.5V6.75V9V11.25V13.5V15.75V18V20.25V22.5H96.75H94.5ZM83.25 22.5H81H78.75V20.25V18V15.75V13.5V11.25V9V6.75V4.5V2.25V0H81H83.25V2.25V4.5V6.75V9V11.25V13.5V15.75V18V20.25V22.5ZM112.5 27H110.25V24.75V22.5V20.25V18V15.75V13.5V11.25V9V6.75V4.5H108H105.75H103.5H101.25V2.25V0H103.5H105.75H108H110.25H112.5H114.75H117H119.25H121.5H123.75V2.25V4.5H121.5H119.25H117H114.75V6.75V9V11.25V13.5V15.75V18V20.25V22.5V24.75V27H112.5ZM155.25 27H153H150.75H148.5H146.25H144H141.75V24.75V22.5H144H146.25H148.5H150.75H153H155.25H157.5V24.75V27H155.25ZM157.5 22.5V20.25V18V15.75V13.5H155.25H153V11.25V9H155.25H157.5H159.75H162V11.25V13.5V15.75V18V20.25V22.5H159.75H157.5ZM141.75 22.5H139.5H137.25V20.25V18V15.75V13.5V11.25V9V6.75V4.5H139.5H141.75V6.75V9V11.25V13.5V15.75V18V20.25V22.5ZM159.75 4.5H157.5H155.25H153H150.75H148.5H146.25H144H141.75V2.25V0H144H146.25H148.5H150.75H153H155.25H157.5H159.75H162V2.25V4.5H159.75ZM184.5 27H182.25H180H177.75H175.5H173.25H171H168.75H166.5H164.25V24.75V22.5V20.25V18V15.75V13.5V11.25V9V6.75V4.5V2.25V0H166.5H168.75H171H173.25H175.5H177.75H180H182.25H184.5H186.75V2.25V4.5H184.5H182.25H180H177.75H175.5H173.25H171H168.75V6.75V9H171H173.25H175.5V11.25V13.5H173.25H171H168.75V15.75V18V20.25V22.5H171H173.25H175.5H177.75H180H182.25H184.5H186.75V24.75V27H184.5ZM209.25 27H207V24.75V22.5V20.25V18V15.75H204.75H202.5V13.5V11.25H204.75H207V9V6.75V4.5V2.25V0H209.25H211.5V2.25V4.5V6.75V9V11.25V13.5V15.75V18V20.25V22.5V24.75V27H209.25ZM191.25 27H189V24.75V22.5V20.25V18V15.75V13.5V11.25V9V6.75V4.5V2.25V0H191.25H193.5V2.25H195.75H198V4.5V6.75H200.25H202.5V9V11.25H200.25H198V9V6.75H195.75H193.5V9V11.25V13.5V15.75V18V20.25V22.5V24.75V27H191.25ZM234 27H231.75H229.5H227.25H225H222.75H220.5H218.25H216H213.75V24.75V22.5V20.25V18V15.75V13.5V11.25V9V6.75V4.5V2.25V0H216H218.25H220.5H222.75H225H227.25H229.5H231.75H234H236.25V2.25V4.5H234H231.75H229.5H227.25H225H222.75H220.5H218.25V6.75V9H220.5H222.75H225V11.25V13.5H222.75H220.5H218.25V15.75V18V20.25V22.5H220.5H222.75H225H227.25H229.5H231.75H234H236.25V24.75V27H234ZM252 27H249.75H247.5H245.25H243H240.75H238.5V24.75V22.5H240.75H243H245.25H247.5H249.75H252H254.25V24.75V27H252ZM254.25 22.5V20.25V18V15.75V13.5H256.5H258.75V15.75V18V20.25V22.5H256.5H254.25ZM254.25 13.5H252H249.75H247.5H245.25H243V11.25V9H245.25H247.5H249.75H252H254.25V11.25V13.5ZM243 9H240.75H238.5V6.75V4.5H240.75H243V6.75V9ZM256.5 4.5H254.25H252H249.75H247.5H245.25H243V2.25V0H245.25H247.5H249.75H252H254.25H256.5H258.75V2.25V4.5H256.5ZM270 27H267.75H265.5H263.25V24.75V22.5H265.5V20.25V18V15.75V13.5V11.25V9V6.75V4.5H263.25V2.25V0H265.5H267.75H270H272.25V2.25V4.5H270V6.75V9V11.25V13.5V15.75V18V20.25V22.5H272.25V24.75V27H270ZM288 27H285.75H283.5H281.25H279H276.75H274.5V24.75V22.5H276.75H279H281.25H283.5H285.75H288H290.25V24.75V27H288ZM290.25 22.5V20.25V18V15.75V13.5H292.5H294.75V15.75V18V20.25V22.5H292.5H290.25ZM290.25 13.5H288H285.75H283.5H281.25H279V11.25V9H281.25H283.5H285.75H288H290.25V11.25V13.5ZM279 9H276.75H274.5V6.75V4.5H276.75H279V6.75V9ZM292.5 4.5H290.25H288H285.75H283.5H281.25H279V2.25V0H281.25H283.5H285.75H288H290.25H292.5H294.75V2.25V4.5H292.5Z" fill="#4C4C4C"/>
</svg>
