<svg width="343" height="95" viewBox="0 0 343 95" fill="none" xmlns="http://www.w3.org/2000/svg">
<rect x="1" y="1" width="341" height="93" fill="#C6C6C6" stroke="black" stroke-width="2"/>
<path d="M102.5 65.3994V30.3994H127V44.3994H123.5V47.8994H127V65.3994H116.5V51.3994H113V65.3994H102.5ZM116.5 44.3994V37.3994H113V44.3994H116.5ZM142.492 51.3994V58.3994H156.492V65.3994H131.992V30.3994H156.492V37.3994H142.492V44.3994H152.992V51.3994H142.492ZM175.484 58.3994V44.3994H185.984V65.3994H161.484V30.3994H185.984V37.3994H171.984V58.3994H175.484ZM190.977 65.3994V30.3994H201.477V65.3994H190.977ZM206.455 51.3994V30.3994H230.955V37.3994H216.955V44.3994H230.955V65.3994H206.455V58.3994H220.455V51.3994H206.455ZM253.447 37.3994V65.3994H242.947V37.3994H235.947V30.3994H260.447V37.3994H253.447ZM275.939 51.3994V58.3994H289.939V65.3994H265.439V30.3994H289.939V37.3994H275.939V44.3994H286.439V51.3994H275.939ZM294.932 65.3994V30.3994H319.432V44.3994H315.932V47.8994H319.432V65.3994H308.932V51.3994H305.432V65.3994H294.932ZM308.932 44.3994V37.3994H305.432V44.3994H308.932Z" fill="black"/>
<path d="M38.8122 15.5646C40.5396 15.0878 43.2219 14.5038 44.7797 14.2627C46.3375 14.027 49.8678 13.9305 52.6317 14.0538C55.3956 14.1824 59.4912 14.761 61.74 15.3557C63.9888 15.945 67.6195 17.338 69.8181 18.447C72.0166 19.5614 75.6913 22.1598 77.9841 24.2278C80.6161 26.6012 82.934 29.3658 84.272 31.7285C85.4341 33.7858 86.8034 37.161 87.3185 39.2237C87.9404 41.7418 88.1351 44.5599 87.909 47.7959C87.7268 50.4479 87.0296 53.941 86.37 55.5644C85.7042 57.1877 84.4102 59.7754 83.4993 61.3238C82.5885 62.8721 80.0382 65.7652 77.8271 67.7529C75.6222 69.7405 72.0166 72.28 69.8181 73.3944C67.6195 74.5088 63.8443 75.95 61.4259 76.5929C58.1406 77.4662 55.4395 77.7608 50.7472 77.7608C46.0674 77.7608 43.3412 77.4608 40.0685 76.5982C37.6501 75.9553 33.9754 74.5624 31.9025 73.5016C29.8296 72.4408 26.6197 70.3245 24.7603 68.7922C22.9073 67.2653 20.4763 64.8062 19.3645 63.3329C18.2463 61.8595 16.5817 59.0254 15.6646 57.0377C14.1445 53.7374 14 52.7677 14 45.9207C14 39.0791 14.1445 38.104 15.6583 34.8037C16.5754 32.816 18.2526 29.9819 19.3959 28.5085C20.5391 27.0352 22.9701 24.5761 24.8043 23.0492C26.6322 21.5169 29.8296 19.406 31.9025 18.3506C33.9754 17.2951 37.0848 16.0468 38.8122 15.5646Z" fill="#1C487C"/>
<path d="M63.7625 35.3715C64.554 34.7286 65.8982 33.9571 66.7651 33.6625C67.6257 33.3732 69.6107 33.116 71.1622 33.0946C72.7954 33.0731 74.9186 33.4803 76.1875 34.0589C77.3935 34.6108 78.9514 35.8751 79.6423 36.8717C80.7793 38.5111 80.8986 39.6522 80.8986 58.511L73.0467 58.7788L73.0718 50.0728C73.0969 42.2292 72.9776 41.2327 71.872 40.0273C70.8607 38.9236 70.1634 38.704 67.9209 38.7897C66.0176 38.8647 64.7676 39.2665 63.7625 40.1291C62.3931 41.3131 62.3366 41.7256 62.368 58.7788H54.202V33.5982H58.285C62.324 33.5982 62.368 33.6142 62.3366 36.5448L63.7625 35.3715Z" fill="#EDF0F4"/>
<path d="M21.8519 55.9875C20.7337 54.4178 20.5704 53.0837 20.382 43.9115L20.1621 33.5982H28.4475L28.4412 42.5721C28.4412 49.687 28.636 51.7979 29.3835 52.7515C30.1372 53.7052 30.9287 53.957 33.1901 53.957C35.4012 53.957 36.3874 53.657 37.5872 52.6176C39.0948 51.305 39.1262 51.1014 39.1262 33.5982H47.2922V58.7788H43.2092C39.39 58.7788 39.1262 58.7038 39.145 57.5734C39.1639 56.4376 39.1073 56.4161 38.0457 57.2733C37.4302 57.7716 35.866 58.5538 34.572 59.0146C33.278 59.4753 31.2993 59.845 30.1749 59.845C29.0505 59.8396 27.0027 59.3682 25.6208 58.7895C24.2389 58.2163 22.5428 56.9573 21.8519 55.9875Z" fill="#EDF0F4"/>
<path d="M340 2V93" stroke="#626262" stroke-width="2"/>
<path d="M2 92L341 92" stroke="#626262" stroke-width="2"/>
<path d="M3 93V2" stroke="#FFF6F6" stroke-width="2"/>
<path d="M341 3L3 3" stroke="#FFF6F6" stroke-width="2"/>
</svg>
